<svg width="60" height="15" viewBox="0 0 60 15" fill="none" xmlns="http://www.w3.org/2000/svg">
<path d="M12.2049 0H8.5917L2.88507 6.64221V0H0V14.4909H2.88507V7.8318L8.78009 14.4909H12.3933L5.97969 7.24547L12.2049 0Z" fill="#140064"/>
<path d="M60 14.4909L55.6671 9.4786L59.8709 4.46624H56.7594L53.0954 8.80337V0H50.2124V14.4909H53.0954V10.1432L56.8292 14.4909H60Z" fill="#140064"/>
<path d="M19.3042 4.11699C18.0914 4.11699 17.0563 4.63981 16.2054 5.35738V0H13.3203V9.54422C13.3203 12.4187 15.2253 14.8233 18.7983 14.8233C22.0136 14.8233 24.2764 12.6029 24.2764 9.4913C24.2764 6.54485 22.329 4.11699 19.3042 4.11699ZM18.7983 12.2155C18.0848 12.2131 17.4001 11.9336 16.8887 11.436C16.3773 10.9384 16.0792 10.2616 16.0572 9.54845C16.0572 9.52305 16.0572 9.49765 16.0572 9.47225C16.0572 8.92801 16.2186 8.39599 16.521 7.94348C16.8233 7.49096 17.2531 7.13827 17.7559 6.92999C18.2587 6.72172 18.812 6.66723 19.3458 6.77341C19.8795 6.87958 20.3698 7.14166 20.7547 7.52649C21.1395 7.91132 21.4016 8.40163 21.5078 8.93541C21.6139 9.46919 21.5594 10.0225 21.3512 10.5253C21.1429 11.0281 20.7902 11.4579 20.3377 11.7602C19.8852 12.0626 19.3532 12.224 18.8089 12.224L18.7983 12.2155Z" fill="#140064"/>
<path d="M44.6666 4.11696C43.4363 4.10208 42.2466 4.55618 41.3391 5.38698V4.43235H38.4562V14.4888H41.3391V8.85203C41.3391 8.28784 41.5632 7.74675 41.9622 7.34781C42.3611 6.94887 42.9022 6.72474 43.4664 6.72474C44.0306 6.72474 44.5717 6.94887 44.9706 7.34781C45.3696 7.74675 45.5937 8.28784 45.5937 8.85203V14.4888H48.4957V8.04768C48.4957 8.00746 48.4957 7.96936 48.4957 7.93126C48.4879 6.91949 48.0815 5.9516 47.3647 5.23753C46.6478 4.52347 45.6784 4.12083 44.6666 4.11696Z" fill="#140064"/>
<path d="M31.1789 4.117C27.9276 4.117 25.6416 6.33743 25.6416 9.4511C25.6416 12.3954 27.6101 14.8275 30.6688 14.8275C31.3349 14.8158 31.9899 14.6545 32.5852 14.3555C33.1806 14.0565 33.7012 13.6276 34.1084 13.1003V14.4889H36.7183V9.45745H36.695L36.7183 9.4003C36.7183 6.52793 34.7963 4.117 31.1789 4.117ZM31.2403 12.1922C30.696 12.1922 30.164 12.0308 29.7115 11.7285C29.259 11.4261 28.9063 10.9964 28.698 10.4935C28.4898 9.99074 28.4353 9.43746 28.5414 8.90368C28.6476 8.3699 28.9097 7.87959 29.2945 7.49476C29.6794 7.10992 30.1697 6.84785 30.7034 6.74167C31.2372 6.6355 31.7905 6.68999 32.2933 6.89826C32.7961 7.10653 33.2259 7.45922 33.5282 7.91174C33.8306 8.36426 33.992 8.89627 33.992 9.44051C33.9926 9.80187 33.9219 10.1598 33.7842 10.4939C33.6464 10.8279 33.4442 11.1316 33.189 11.3875C32.9339 11.6434 32.6309 11.8466 32.2972 11.9854C31.9636 12.1242 31.6059 12.1959 31.2445 12.1965L31.2403 12.1922Z" fill="#140064"/>
</svg>
